/* XPM */
static char *_81198d9524b434dcaa38c40aff0c971fZaktnLNHjZ0z9nE[] = {
/* columns rows colors chars-per-pixel */
"64 64 7 1 ",
"  c None",
". c black",
"X c #33002A",
"o c #36002C",
"O c #7D0067",
"+ c #FF0DD4",
"@ c #FF80E8",
/* pixels */
"                                                                ",
"                                                                ",
"                                                                ",
"                                                                ",
"                                                                ",
"                                                                ",
"                                                                ",
"                                                                ",
"                               ..                               ",
"                              .X@.                              ",
"                              .X@.                              ",
"                             .oX@@.                             ",
"                             .oX@@.                             ",
"                            .OoX@@@.                            ",
"                            .OoX@@@.                            ",
"                           .OOoX@@@@.                           ",
"                           .OOoX@O@@.                           ",
"                          .OOOoX@OO@@.                          ",
"                          .OOOoX@OO@@.                          ",
"                         .OOOOoX@OOO@@.                         ",
"                         .O+OOoX@OOO@@.                         ",
"                        .OO+OOoX@OOO@@@.                        ",
"                        .O++OOoX@OOOO@@.                        ",
"                       .OO+++OoX@OOOO@@@.                       ",
"                       .OO+++OoX@OOO@@@@.                       ",
"                      .O+O+++OoX@OOO@@@@@.                      ",
"                      .O+++++OoX@OOO@@@@@.                      ",
"                     .OO+++++OoX@OO@@@@@@@.                     ",
"                     .OOO++++Ooo@OO@@@@@@@.                     ",
"                    .OOOO++++Ooo@OO@@@@@@@@.                    ",
"                    .OOOOOOOoooX@@OOOOO@@@@.                    ",
"                    .++++OOOOOOO@OooooOoOOOo                    ",
"                    .+++OOOOOOOO@OoooooOoOO.                    ",
"                    .++OO+OOOOOO@OoooooOOoO.                    ",
"                     .+O+OOOOOOX@OooooooOo.                     ",
"                     .OO+OOOOOOX@OooooooOO.                     ",
"                      .OOOOOOO+X@OoOOoooo.                      ",
"                      .OOOOOO++X@OoOOoooo.                      ",
"                       .OOOOO++X@OoOOooo.                       ",
"                       .OOOO+++X@OoOOOoo.                       ",
"                       .OOOO+++X@OoOOOoo.                       ",
"                        .OO++++X@OoOOOo.                        ",
"                        .OO++++X@OoOOOo.                        ",
"                         .O++++X@OoOOO.                         ",
"                         .+++++X@OoOOO.                         ",
"                          .++++X@OoOO.                          ",
"                          .++++X@OoOO.                          ",
"                           .+++X@OOO.                           ",
"                           .+++X@OOO.                           ",
"                            .++X@OO.                            ",
"                            .++X@OO.                            ",
"                             .+X@O.                             ",
"                             .+X@O.                             ",
"                              .O@.                              ",
"                               ..                               ",
"                                                                ",
"                                                                ",
"                                                                ",
"                                                                ",
"                                                                ",
"                                                                ",
"                                                                ",
"                                                                ",
"                                                                "
};
