/* XPM */
static char *c1564aa1ad0646b2f6bee7dcd872ed03mIMFxoAvkHZYjkWN[] = {
/* columns rows colors chars-per-pixel */
"64 64 141 2 ",
"   c None",
".  c #0F0705",
"X  c #0B0409",
"o  c #100407",
"O  c #13070C",
"+  c #15080D",
"@  c #180A0A",
"#  c #1B0C0B",
"$  c #1C0C0B",
"%  c #1E0C0C",
"&  c #120710",
"*  c #120810",
"=  c #1E0C1B",
"-  c #200D0C",
";  c #27110E",
":  c #28120E",
">  c #2B140F",
",  c #210D1D",
"<  c #2D1510",
"1  c #301711",
"2  c #341015",
"3  c #331B14",
"4  c #3F171B",
"5  c #3B2117",
"6  c #3F2518",
"7  c #240E20",
"8  c #2D0D2A",
"9  c #351423",
"0  c #3C1321",
"q  c #3D1420",
"w  c #3A1726",
"e  c #3F1B25",
"r  c #32102A",
"t  c #361328",
"y  c #32142C",
"u  c #34152E",
"i  c #3F182A",
"p  c #2B0E33",
"a  c #2F1132",
"s  c #361630",
"d  c #381732",
"f  c #3B1834",
"g  c #3E1937",
"h  c #41171B",
"j  c #421A1B",
"k  c #42191C",
"l  c #441A1C",
"z  c #451C1C",
"x  c #4B1E1F",
"c  c #4C1F1E",
"v  c #44271A",
"b  c #4E201F",
"n  c #4B2B1C",
"m  c #56261C",
"M  c #502E1E",
"N  c #6E3B13",
"B  c #633119",
"V  c #67321C",
"C  c #713F1A",
"Z  c #431820",
"A  c #401B24",
"S  c #4F1E23",
"D  c #4A1A26",
"F  c #421A2B",
"G  c #511F24",
"H  c #411A39",
"J  c #532221",
"K  c #542221",
"L  c #502421",
"P  c #572423",
"I  c #582423",
"U  c #5D2723",
"Y  c #5B2524",
"T  c #5C2625",
"R  c #5F2825",
"E  c #602923",
"W  c #622A25",
"Q  c #662B27",
"!  c #642C26",
"~  c #6A2F26",
"^  c #6D2F27",
"/  c #6B2E29",
"(  c #6F3228",
")  c #723327",
"_  c #713229",
"`  c #74322B",
"'  c #77362B",
"]  c #76322D",
"[  c #79352B",
"{  c #79372D",
"}  c #7D382B",
"|  c #7F3A2C",
" . c #7A3432",
".. c #7C3434",
"X. c #803B29",
"o. c #81392F",
"O. c #833C2E",
"+. c #853D2E",
"@. c #883F2E",
"#. c #813831",
"$. c #843A33",
"%. c #863C32",
"&. c #843934",
"*. c #883E30",
"=. c #965B13",
"-. c #945018",
";. c #AF690A",
":. c #B46D07",
">. c #AD601A",
",. c #B46716",
"<. c #89402F",
"1. c #8B4031",
"2. c #8D4131",
"3. c #904233",
"4. c #924432",
"5. c #944533",
"6. c #974535",
"7. c #9B4736",
"8. c #9B4935",
"9. c #9C4935",
"0. c #904D39",
"q. c #984E3A",
"w. c #9C533D",
"e. c #9E543E",
"r. c #A65723",
"t. c #A95A21",
"y. c #A34B38",
"u. c #A34C38",
"i. c #AA4E3B",
"p. c #A0593E",
"a. c #C9721A",
"s. c #A75941",
"d. c #AC5B43",
"f. c #B46644",
"g. c #C36F4A",
"h. c #C5704B",
"j. c #D1784F",
"k. c #D67A51",
"l. c #D58601",
"z. c #F29B00",
"x. c None",
/* pixels */
"x.x.x.x.x.x.x.x.x.x.                                                                                        x.x.x.x.x.x.x.x.x.x.",
"x.x.x.x.x.x.x.x.x.x.  X * * & & & & & & & & & & & & & & & & & & & & & & & & & & & + @ o # 5 M n n n M v #   x.x.x.x.x.x.x.x.x.x.",
"x.x.x.x.x.x.x.x.x.x.  = s u y y y y y y y y y y y y y y y y y y y y y y y y y y y w k 2 L p.j.h.g.g.k.f.6   x.x.x.x.x.x.x.x.x.x.",
"x.x.x.x.x.x.x.x.x.x.  7 H g f f f f f f f f f f f f f f f f f f f f f f f f f f f F J U { q.s.e.w.w.d.0.3   x.x.x.x.x.x.x.x.x.x.",
"x.x.x.x.x.x.x.x.x.x.  , f d s s s s s s s s s s s s s s s s s s s s s s s s s s s w x } 1.U 4 l x x S j @   x.x.x.x.x.x.x.x.x.x.",
"x.x.x.x.x.x.x.x.x.x.  , f d s s s s s s s s s s s s s s s s s s s s s s s s s s s w x X.2.K h W ^ ~ _ E -   x.x.x.x.x.x.x.x.x.x.",
"x.x.x.x.x.x.x.x.x.x.  , f d s s s s s s s s s s s s s s s s s s s s s s s s s s s w x [ *.P K @.8.4.y.+.1   x.x.x.x.x.x.x.x.x.x.",
"x.x.x.x.x.x.x.x.x.x.  , f d s s s s s s s s s s s s s s s s s s s s s s s s s s s w x [ *.P K +.6.3.9.+.<   x.x.x.x.x.x.x.x.x.x.",
"x.x.x.x.x.x.x.x.x.x.  , f d s s s s s s s s s s s s s s s s s s s s s s s s s s s w x [ *.P J O.5.2.7.O.<   x.x.x.x.x.x.x.x.x.x.",
"x.x.x.x.x.x.x.x.x.x.  , f d s s s s s s s s s s s s s s s s s s s s s s s s s s s w x [ *.P J O.5.2.7.O.<   x.x.x.x.x.x.x.x.x.x.",
"x.x.x.x.x.x.x.x.x.x.  , f d s s s s s s s s s s s s s s s s s s s s s s s s s s s w x [ *.P J O.5.2.7.O.<   x.x.x.x.x.x.x.x.x.x.",
"x.x.x.x.x.x.x.x.x.x.  , f d s s s s s s s s s s s s s s s s s s s s s s s s s s s w x [ *.P J O.5.2.7.O.<   x.x.x.x.x.x.x.x.x.x.",
"x.x.x.x.x.x.x.x.x.x.  , f d s s s s s s s s s s s s s s s s s s s s s s s s s s s w x [ *.P J O.5.2.7.O.<   x.x.x.x.x.x.x.x.x.x.",
"x.x.x.x.x.x.x.x.x.x.  , f d s s s s s s s s s s s s s s s s s s s s s s s s s s s w x [ *.P J O.5.2.7.O.<   x.x.x.x.x.x.x.x.x.x.",
"x.x.x.x.x.x.x.x.x.x.  , f d s s s s s s s s s s s s s s s s s s s s s s s s s s s w x [ *.P J O.5.2.7.O.<   x.x.x.x.x.x.x.x.x.x.",
"x.x.x.x.x.x.x.x.x.x.  , f d s s s s s s s s s s s s s s s s s s s s s s s s s s s w x [ *.P J O.5.2.7.O.<   x.x.x.x.x.x.x.x.x.x.",
"x.x.x.x.x.x.x.x.x.x.  , f d s s s s s s s s s s s s s s s s s s s s s s s s s s s w x [ *.P J O.5.2.7.O.<   x.x.x.x.x.x.x.x.x.x.",
"x.x.x.x.x.x.x.x.x.x.  , f d s s s s s s s s s s s s s s s s s s s s s s s s s s s w x [ *.P J O.5.2.7.O.<   x.x.x.x.x.x.x.x.x.x.",
"x.x.x.x.x.x.x.x.x.x.  , f d s s s s s s s s s s s s s s s s s s s s s s s s s s s w x [ *.P J O.5.2.7.O.<   x.x.x.x.x.x.x.x.x.x.",
"x.x.x.x.x.x.x.x.x.x.  , f d s s s s s s s s s s s s s s s s s s s s s s s s s s s w x [ *.P J O.5.2.7.O.<   x.x.x.x.x.x.x.x.x.x.",
"x.x.x.x.x.x.x.x.x.x.  , f d s s s s s s s s s s s s s s s s s s s s s s s s s s s w x [ *.P J O.5.2.7.O.<   x.x.x.x.x.x.x.x.x.x.",
"x.x.x.x.x.x.x.x.x.x.  , f d s s s s s s s s s s s s s s s s s s s s s s s s s s s w x [ *.P J O.5.2.7.O.<   x.x.x.x.x.x.x.x.x.x.",
"x.x.x.x.x.x.x.x.x.x.  , f d s s s s s s s s s s s s s s s s s s s s s s s s s s s w x [ *.P J O.5.2.7.O.<   x.x.x.x.x.x.x.x.x.x.",
"x.x.x.x.x.x.x.x.x.x.  , f d s s s s s s s s s s s s s s s s s s s s s s s s s s s w x [ *.P J O.5.2.7.O.<   x.x.x.x.x.x.x.x.x.x.",
"x.x.x.x.x.x.x.x.x.x.  , f d s s s s s s s s s s s s s s s s s s s s s s s s s s s w x [ *.P J O.5.2.7.O.<   x.x.x.x.x.x.x.x.x.x.",
"x.x.x.x.x.x.x.x.x.x.  , f d s s s s s s s s s s s s s s s s s s s s s s s s s s s w x [ *.P J O.5.2.7.O.<   x.x.x.x.x.x.x.x.x.x.",
"x.x.x.x.x.x.x.x.x.x.  , f d s s s s s s s s s s s s s s s s s s s s s s s s s s s w x [ *.P K +.8.4.y.+.1   x.x.x.x.x.x.x.x.x.x.",
"x.x.x.x.x.x.x.x.x.x.  , f d s s s s s s s s s s s s s s s s s s s s s s s s s s s w x [ *.P J +.5.2.9.O.<   x.x.x.x.x.x.x.x.x.x.",
"x.x.x.x.x.x.x.x.x.x.  , f d s s s s s s s s s s s s s s s s s s s s s s s s s s s r 0 ` 1.U x R ! W / I -   x.x.x.x.x.x.x.x.x.x.",
"x.x.x.x.x.x.x.x.x.x.  , f d s s s s s s s s s s s s s s s s s s s s s s s s s s s e m X.*.R k x x x J z @   x.x.x.x.x.x.x.x.x.x.",
"x.x.x.x.x.x.x.x.x.x.  , f d s s s s s s s s s s s s s s s s s s s s s s s s s a a C ;.t.#.K c ( ' _ | ~ ;   x.x.x.x.x.x.x.x.x.x.",
"x.x.x.x.x.x.x.x.x.x.  , f d s s s s s s s s s s s s s s s s s s s s s s s s s p p =.z.a. .S K *.9.5.y.@.1   x.x.x.x.x.x.x.x.x.x.",
"x.x.x.x.x.x.x.x.x.x.  , f d s s s s s s s s s s s s s s s s s s s s s s s s s p p =.z.a. .S J +.6.2.9.+.<   x.x.x.x.x.x.x.x.x.x.",
"x.x.x.x.x.x.x.x.x.x.  , f d s s s s s s s s s s s s s s s s s s s s s s s s s a a C ;.r...G K O.5.2.7.O.<   x.x.x.x.x.x.x.x.x.x.",
"x.x.x.x.x.x.x.x.x.x.  , f d s s s s s s s s s s s s s s s s s s s s s s s s s s s A m } $.K K O.5.2.7.O.<   x.x.x.x.x.x.x.x.x.x.",
"x.x.x.x.x.x.x.x.x.x.  , f d s s s s s s s s s s s s s s s s s s s s s s s s s s s 8 q -.,.B G *.8.4.y.@.1   x.x.x.x.x.x.x.x.x.x.",
"x.x.x.x.x.x.x.x.x.x.  , f d s s s s s s s s s s s s s s s s s s s s s s s s s s s r b :.l.N D o.4.1.7.o.<   x.x.x.x.x.x.x.x.x.x.",
"x.x.x.x.x.x.x.x.x.x.  , f d s s s s s s s s s s s s s s s s s s s s s s s s s s s t c -.>.V Z I R U Q P %   x.x.x.x.x.x.x.x.x.x.",
"x.x.x.x.x.x.x.x.x.x.  , f d s s s s s s s s s s s s s s s s s s s s s s s s s s s w x ] &.T l x c c K z @   x.x.x.x.x.x.x.x.x.x.",
"x.x.x.x.x.x.x.x.x.x.  , f d s s s s s s s s s s s s s s s s s s s s s s s s s s s w x [ %.P b _ | [ $.( ;   x.x.x.x.x.x.x.x.x.x.",
"x.x.x.x.x.x.x.x.x.x.  , f d s s s s s s s s s s s s s s s s s s s s s s s s s s s w x [ *.P K *.9.5.y.<.1   x.x.x.x.x.x.x.x.x.x.",
"x.x.x.x.x.x.x.x.x.x.  , f d s s s s s s s s s s s s s s s s s s s s s s s s s s s w x [ *.P J +.5.2.9.O.<   x.x.x.x.x.x.x.x.x.x.",
"x.x.x.x.x.x.x.x.x.x.  , f d s s s s s s s s s s s s s s s s s s s s s s s s s s s w x [ *.P J O.5.2.7.O.<   x.x.x.x.x.x.x.x.x.x.",
"x.x.x.x.x.x.x.x.x.x.  , f d s s s s s s s s s s s s s s s s s s s s s s s s s s s w x [ *.P J O.5.2.7.O.<   x.x.x.x.x.x.x.x.x.x.",
"x.x.x.x.x.x.x.x.x.x.  , f d s s s s s s s s s s s s s s s s s s s s s s s s s s s w x [ *.P J O.5.2.7.O.<   x.x.x.x.x.x.x.x.x.x.",
"x.x.x.x.x.x.x.x.x.x.  , f d s s s s s s s s s s s s s s s s s s s s s s s s s s s w x [ *.P J O.5.2.7.O.<   x.x.x.x.x.x.x.x.x.x.",
"x.x.x.x.x.x.x.x.x.x.  , f d s s s s s s s s s s s s s s s s s s s s s s s s s s s w x [ *.P J O.5.2.7.O.<   x.x.x.x.x.x.x.x.x.x.",
"x.x.x.x.x.x.x.x.x.x.  , f d s s s s s s s s s s s s s s s s s s s s s s s s s s s w x [ *.P J O.5.2.7.O.<   x.x.x.x.x.x.x.x.x.x.",
"x.x.x.x.x.x.x.x.x.x.  , f d s s s s s s s s s s s s s s s s s s s s s s s s s s s w x [ *.P J O.5.2.7.O.<   x.x.x.x.x.x.x.x.x.x.",
"x.x.x.x.x.x.x.x.x.x.  , f d s s s s s s s s s s s s s s s s s s s s s s s s s s s w x [ *.P J O.5.2.7.O.<   x.x.x.x.x.x.x.x.x.x.",
"x.x.x.x.x.x.x.x.x.x.  , f d s s s s s s s s s s s s s s s s s s s s s s s s s s s w x [ *.P J O.5.2.7.O.<   x.x.x.x.x.x.x.x.x.x.",
"x.x.x.x.x.x.x.x.x.x.  , f d s s s s s s s s s s s s s s s s s s s s s s s s s s s w x [ *.P J O.5.2.7.O.<   x.x.x.x.x.x.x.x.x.x.",
"x.x.x.x.x.x.x.x.x.x.  , f d s s s s s s s s s s s s s s s s s s s s s s s s s s s w x [ *.P J O.5.2.7.O.<   x.x.x.x.x.x.x.x.x.x.",
"x.x.x.x.x.x.x.x.x.x.  , f d s s s s s s s s s s s s s s s s s s s s s s s s s s s w x [ *.P J O.5.2.7.O.<   x.x.x.x.x.x.x.x.x.x.",
"x.x.x.x.x.x.x.x.x.x.  , f d s s s s s s s s s s s s s s s s s s s s s s s s s s s w x [ *.P J O.5.2.7.O.<   x.x.x.x.x.x.x.x.x.x.",
"x.x.x.x.x.x.x.x.x.x.  , f d s s s s s s s s s s s s s s s s s s s s s s s s s s s w x [ *.P J O.5.2.7.O.<   x.x.x.x.x.x.x.x.x.x.",
"x.x.x.x.x.x.x.x.x.x.  , f d s s s s s s s s s s s s s s s s s s s s s s s s s s s w x [ *.P J O.5.2.7.O.<   x.x.x.x.x.x.x.x.x.x.",
"x.x.x.x.x.x.x.x.x.x.  , f d s s s s s s s s s s s s s s s s s s s s s s s s s s s w x [ *.P J O.5.2.7.O.<   x.x.x.x.x.x.x.x.x.x.",
"x.x.x.x.x.x.x.x.x.x.  , f d s s s s s s s s s s s s s s s s s s s s s s s s s s s w x [ *.P J O.5.2.7.O.<   x.x.x.x.x.x.x.x.x.x.",
"x.x.x.x.x.x.x.x.x.x.  , f d s s s s s s s s s s s s s s s s s s s s s s s s s s s w x [ *.P J O.5.2.7.O.<   x.x.x.x.x.x.x.x.x.x.",
"x.x.x.x.x.x.x.x.x.x.  7 H g f f f f f f f f f f f f f f f f f f f f f f f f f f f i J +.6.R Y 3.u.7.i.2.1   x.x.x.x.x.x.x.x.x.x.",
"x.x.x.x.x.x.x.x.x.x.  = s u y y y y y y y y y y y y y y y y y y y y y y y y y y y 9 z ) | b c [ <.O.2.[ :   x.x.x.x.x.x.x.x.x.x.",
"x.x.x.x.x.x.x.x.x.x.  X * * & & & & & & & & & & & & & & & & & & & & & & & & & & & O @ : < $ @ > 1 < 1 > .   x.x.x.x.x.x.x.x.x.x.",
"x.x.x.x.x.x.x.x.x.x.                                                                                        x.x.x.x.x.x.x.x.x.x."
};
