/* XPM */
static char *_d9835789d7945d1ba5f73199cbdfb79ipMl65PmI1RGmOYi[] = {
/* columns rows colors chars-per-pixel */
"64 64 196 2 ",
"   c #282721",
".  c #2D2A25",
"X  c #2F2F2A",
"o  c #312E27",
"O  c #332F2B",
"+  c #35332C",
"@  c #3B342D",
"#  c #373531",
"$  c #3C3631",
"%  c #3C3A34",
"&  c #3E3E3A",
"*  c #41362E",
"=  c #433B2F",
"-  c #433732",
";  c #433C34",
":  c #4A3D34",
">  c #423E39",
",  c #444235",
"<  c #494337",
"1  c #44433C",
"2  c #4B443C",
"3  c #4C493D",
"4  c #52463C",
"5  c #58473D",
"6  c #534B3D",
"7  c #5A4C3F",
"8  c #55503F",
"9  c #454542",
"0  c #4B4641",
"q  c #474845",
"w  c #4C4B44",
"e  c #474949",
"r  c #4D4D4A",
"t  c #534641",
"y  c #584742",
"u  c #534C44",
"i  c #5B4D44",
"p  c #544E4A",
"a  c #5B4F49",
"s  c #4F504D",
"d  c #555244",
"f  c #5B5344",
"g  c #5E5946",
"h  c #54524B",
"j  c #5B544C",
"k  c #5D5A4D",
"l  c #4F5150",
"z  c #545552",
"x  c #5D5652",
"c  c #575854",
"v  c #5C5B53",
"b  c #575958",
"n  c #5C5D5A",
"m  c #624E44",
"M  c #635445",
"N  c #695347",
"B  c #625B47",
"V  c #63554C",
"C  c #6A564B",
"Z  c #645B4C",
"A  c #6B5C4C",
"S  c #715749",
"D  c #725C4E",
"F  c #635651",
"G  c #695751",
"H  c #635C53",
"J  c #6A5C53",
"K  c #645E5A",
"L  c #6D5E59",
"P  c #725C53",
"I  c #715E59",
"U  c #5F6057",
"Y  c #5F605D",
"T  c #66614D",
"R  c #6A634E",
"E  c #646155",
"W  c #6B6454",
"Q  c #6E6853",
"!  c #63635B",
"~  c #6B645C",
"^  c #6C6A5D",
"/  c #746454",
"(  c #7A6354",
")  c #736C54",
"_  c #7A6955",
"`  c #72655B",
"'  c #7A655B",
"]  c #746B5D",
"[  c #7B6B5C",
"{  c #767057",
"}  c #76715C",
"|  c #7A7359",
" . c #5F6060",
".. c #636561",
"X. c #6C6561",
"o. c #676864",
"O. c #6B6B63",
"+. c #6C6E6A",
"@. c #756661",
"#. c #736C63",
"$. c #7A6C63",
"%. c #766D69",
"&. c #796F6A",
"*. c #6F7066",
"=. c #6F716C",
"-. c #747265",
";. c #7A7365",
":. c #7E7A67",
">. c #73746B",
",. c #7B736B",
"<. c #77786F",
"1. c #7B7A6C",
"2. c #6F7170",
"3. c #747671",
"4. c #757773",
"5. c #7E7571",
"6. c #777973",
"7. c #7B7C74",
"8. c #7C7E7A",
"9. c #836555",
"0. c #8A6556",
"q. c #826B5D",
"w. c #83725E",
"e. c #8A735D",
"r. c #81795E",
"t. c #8A795F",
"y. c #826D62",
"u. c #816E68",
"i. c #837364",
"p. c #8B7464",
"a. c #857D62",
"s. c #8B7A66",
"d. c #82756A",
"f. c #8C776B",
"g. c #837B6D",
"h. c #8C7B6B",
"j. c #917A66",
"k. c #907F6E",
"l. c #807772",
"z. c #847B73",
"x. c #897E72",
"c. c #867B78",
"v. c #917F74",
"b. c #7F817B",
"n. c #85816D",
"m. c #928064",
"M. c #988367",
"N. c #93816E",
"B. c #98836A",
"V. c #9C8A6D",
"C. c #838274",
"Z. c #8B8475",
"A. c #8C8976",
"S. c #84847C",
"D. c #8D847A",
"F. c #8B8A7C",
"G. c #938474",
"H. c #9D8475",
"J. c #9E8873",
"K. c #92877B",
"L. c #938B7C",
"P. c #9A8C7A",
"I. c #93917F",
"U. c #9D907F",
"Y. c #A8826B",
"T. c #A58D74",
"R. c #A49077",
"E. c #838581",
"W. c #868882",
"Q. c #8A8B83",
"!. c #8C8F8B",
"~. c #958C83",
"^. c #998B81",
"/. c #939284",
"(. c #9C9485",
"). c #93948D",
"_. c #9A948C",
"`. c #99998C",
"'. c #929490",
"]. c #979993",
"[. c #9A9C93",
"{. c #A39482",
"}. c #A59986",
"|. c #A39A8D",
" X c #AB9C8B",
".X c #A69D92",
"XX c #AFA48A",
"oX c #B7A48D",
"OX c #A3A297",
"+X c #AEA496",
"@X c #A7A89F",
"#X c #B2A394",
"$X c #B4A997",
"%X c #B4AD9D",
"&X c #B7ACA0",
"*X c #B7B1A5",
/* pixels */
"X.o.1 0 S.E n #Xe.& o.F J 3.o.$.J d.u u 2 L y.^ n % 3 1 Y o.+.n h Z W V ` }.~ L ' X.c.J L +.h ..p ! W.n % 0 0 u v &.5.h X...9 ~ ",
"%...z c %.L A #.h 9 p K ,.>.+.j C j Z E w 1 V Z.d.u j r z 7.v c h h U d 0 W ~ ;.;.j v z z C.S.j x ~ O.j & 0 ;.-.! {.L.-.6.v 1 h ",
"J X.h >.%.j f O.z J V O.r r z w n ! 1 E J ; 0 h x t g d w v H 3 ;.j u ! v h Q.s ! F.d i j oXf.h w w v 1 > Z n.c 1 Z.W h u ^ w j ",
"j K j g.O.h z , d %.i.P.` + 3 ! w z 9 <.1.2 0 v h 0 j ^ h F K 0 n ,.3 k ,.i.v n ! v d u W j.' h h w h ; 1 j #.u 0 u w k -.o.O.x ",
"..Y p 0 w o.b q h G W R.S 6 A ] &.H b 3.D.s.~ ..3.x @.! d ~ x +.~ K + u E 6 0 p <.1 E H F ! v -.g.^ 1 z >.h s t F ..W d.X.X.] ! ",
"K 8.x > p >.L.j 1 u 2 f ( A u r x.,.<.h s./ ! l ..j y 3 Q -.O.O.H i u d O.Q.1 @ g ] j.p.x E ~ -./.Z.r h j d h 1 d >.H $.~ &.g.( ",
"K ).=.v ..c.p.M % v v d M V + v n n ! 1 v j 1 u 2 u.j j ! -.v n ! 1.^ ,.x z 0 W H L.e.V ..! O.=.1.-.-.C.A 4 z v 3 k u g Z #.g t ",
"2.-.d : k l.G.2 c -.1.;.o.0 g W k v x u O.^ u + i K.w h a F v j 6.O.^ |.z k d #./.).Y ..v c z o.W h #.f i.E w z O.3 ; 2 T 1.@.w ",
"u h y.M ` #.! h o.H j h h J A.C.3 g ` h >.F.-.u ;.^ h d u ;.>.E O.c ;.@.v g R T R 3.c o.! v ! c ! O.O.R z =.O.! ..j ; : g...h g.",
"u u ,./.@.1 1 u d j ! h z | 1.O.w q g n o.1.c h ~ >.6.n u W j c v 3 F K 0 #.A f Z v ! w d j c c h v H P.n o.z c v x j ,.(.,.n J ",
"h x Y Q.! 9 1 w k ` H v c ) W Z h z 9 9 V f h s 1 h z z 1 >.O.@.~ j j 8 6 3 D 7 ,.h w h A H o.g Z F.Z.O.v i 2 3 d j ..O.~ J H O.",
"r @ F (.;.O.c +.O.x.f K v ;.w j C.! z j i ;.! p 2 H d k w.~.;.#.>.j u w h / ^ ~ + j O.h ' w.^ j v +...w j G < r v H n v 1 0 d n ",
"z O 2 i.g Y 3.;.' Z 5 d >.1.v k g.W O.H p O.o.t j d d Q g J ~ ` >.-.) 2 h j h 1 1 6 F.h W `.! j #.,.0 2 ; h + ~ ! f Z n ! T -.6.",
"z * 4 H ! -.^ h J ~ ! f E k r z #.a 6 % 1 ^ ^ 2 y g ;.6.1 k A.^ j h P.C.! v c 1 2 E >.% E A.v 1.d.d h K a V H H c f V K x.g.>.S.",
"; : J 8.+.1.k h K n z 1 c ! c z n >.^ 1 w A.7.I M (.(.Y % g `.F 1 v ;.~ n o.o.h 6 ] S.w w 2 3 w 9 h K.$.% u H v l p L $.q.@ 1 d ",
"Z q h 3.Z.#.K V [ w r + 2 F >.h h Y n q d O.=.6.! O.[.E 2 | F.a u z Z #.<...o.f Z Z G.1.< d 3 h ! o./ % % c 3.n o.w h d 4 ; h g ",
"' 9 p v Q x.h 7.#.d h 2 g ` O.! d j 1 h h ;.%.#.s h *.! 1 ! O.~ d z ! h.y.! X.a W X.v c h d ^ ~ ~ M C + 1 ;.Z k [ ` < < d T h ] ",
"d u 2 d ] &.,.C.6.w h j #.u -.o.h r w q r ! ,.K 6.u ;.6.r n ! d E $.c.y./ g J 2 h z ..x - / D.J i C N u ! W E g y.M 1 < f >.[.b.",
"6 ` 0 E ^ ~ k.&XC @ 1 F g 1 k d & 1 1 u 1 O.o.6.j W h.S.z z Z g B h v q w %.9.q.u W v v 2 M D 7 ] d 4 V +.h R { v n 1 g i.g ..z ",
"< L.v Y 3.O.,.J : ; h H C i M E 1 2 u f %.Q.g d O q 1.^ Y z c O.j 0 n w O.Q.q.4 % j j N V ( [ z.i.;.a A 6.n V f 1 d W f G.[ < @ ",
"B <.=.! ` $.! < u h ..! V 7 f j d ^ h Z ;.-.h > + j F.1 z ..=.z p x o.p.q.C.v 9 z W M m a E C.<...% H 1.~ 1 w ;.3 ; C } Z _ = o ",
"u ! A.3 i N 6 d ! z r u ~ 1.O.j V x.S.1 8 %.# + 3 -.1.h c I.>.h v h ..$.y.~ ..+.q M x.~.Z <.H Q u 3 ` -.6 d <.;.w > f g.#.w.4 % ",
"n z h E C J Z Q O.r & h E v w v k w.v & d K 2 1 v a.1...>.XX/ B ;.! ! 8.u u o.O.+ 4 f.v -.S.h n v @.h.) Z T -.d # + v O.2.o.2 x ",
"S.w % X < %.;.! n 0 , 6 Z , d D / / J s z w j u ~ K.<.v v ] d.Q.@.u ! z.c w h h 2 2 %.~ g ! 6.Y ! r F m u E h h w q n ....n q ! ",
"E 1.u o ] _.u 3.z u u u 1 4 f W J f.+.Y z j 2 j K d E u d h +.F.#.h f X.9 u w v x h O.j a ~ A H <.j i m u O.w ! ! c 8.-.g.p 1 v ",
"#.C.h 0 1.<.f.V Z ' V w k W k k O.r =.+.! V i u r O.) _ W h d Z x # u @.p ` / C.h h d j > v ;.L %.6 H J i 1.O.1 w +...Z <.X.o.! ",
"<.].z p h 1 2 u g.H u k v #.8 T <.h O.>.n ' ( # w ^ Q _ ; 9 Z OXj u v ,.` F g.^ j 4 j i.2 d g.j 6 j s ] K.=.r 1 j n r u O.! <.O.",
"O.<.! 1 & q 1 k C.~ j O.o./ f g S.! 8.-.3 J 1 < 3 E +.& % ` [ ' ;.h.y.~ #.v o.j ; d E v >.n.`.v 3 r 1 f .XQ.w F ~ n r q >.b.! v ",
"(.! & ..w 9 h V ;.O.O./.! f Z Z.~ Y +.^ z & h j j h n 1 d |.~ $.#.J.' f w.h.W t f f E n c ^ 7...r F u A L.! p O.8.r 9 9 k p . d ",
"{.O.+ w ^ ^ h B ;.~ j E 3 v ! 8.j Y h d z z z h h d v q -.3.z v E ! ^ ] s.{.a f u ) >.j x ^ ;.S.r F ;.E E.h h ].|.z.>.r H w.2 L ",
"^ h 0 k -.7.1 6 J v 2 % 2 j v q q x j ! T (.z j ! ^ ! h w h p 2 j #.>.r n Z.v 1 d 7.3.K u d j q q 0 c H ! d c '.G.p.S.Y | G.%.,.",
"j -.! C.A.! 0 u H r z , j a A A k i 7 d ^ C.O.=.w q v , W ) 0 j K x.! 2 a u d g E +.o.j Q T k h Z W v $.>.Z @.).~.K n ! 1 v 6.r ",
"u O.>.n O.! w 6.H c 6.1.D.:.A D F 7 i z n ..! H % 2 w 1 #.;.0 r n +.o.K a y u ] a.V z #.j x a ] W x F.C.h u j ] -...o.w h H @ > ",
"V @.6.r ! O.t a O.g c ..Q.! 8 + ; / _ v ..^ Z V a Z F v O.c i A ~ ....r c K V u ..c w O.h x W $.A J -.H H O.S.S.X.5.o.h n H : 4 ",
"J d.>.w u j 2 j 8.^ z >.}.( 6 2 0 { k K F ^ d H 6 M o.+.O.c ~ H ;.Z w w j j p d # w v $.D H x 3 J #.Z.j %.O.7.!.v %.z h O.0 . + ",
"% ;.X.1 i t h h ..^ ~ ,.G.D 3 f.u } O.u Z v + % #./ ~ F ~ h 4 K n #.r r V t z 1 % k ! 5.v.H 1 g h >.o.n Q.=.).j F ^ p c W j % + ",
"d 1.v k q.C h j W f F ;.S.w w d > E #.] x z % w h g g J v.H d r z x K n 2 K c v ; k #.~.+.w o @ ] #.>.d c n j / ' j w !.%.w 1 $ ",
"d.D.J l.Z.H.; t C /.` g O. .o.~ 2 B ) i > w v F.X.O.^ v :.$.j >.:.Z L c 0 %.`.Y 9 6 w./ J 0 % H V ~ -.H 8 Z R $.a 4 B .XC.w 1 W ",
">.#.F j u ~ u > / v j x z p ! 6.u ' V y > ..o...h K ! 2 4 2 f ~.7.p.J +.z ^ <.c 9 j H o.J N F %.h 3 d S.V a E c 2 ; w N.y.0 u ^ ",
"C.v z u i p.;.^ 1.h w $.,.~ C f ' W V $ 2 w h -.H J H j u h ~ d.x d x 9 E Q -.r 0 <.v p t a G $.M < u +.V y ~ 1 j h v 7.p ; Q Q ",
"A ^ ! w i g.1 c ..p X.6 ` 1.W M d 2 v w p 2 % ` g.2 f j r w 5.L x j n Y w h Y ..1 w ;.2 9 2 O.K.#.T ] 8.-.O.h Q h H !...r % f ) ",
"f g n z w H ! o.X.J Z ! T g.#.4 ; $ j J %.j 2 H / u ! 1 3 W ;.j u f ^ +.n h ..#.9 3 g w O H @X..O.1.E k z v d ) W E <.Y n ..Q 6 ",
"% q h b.3.2 3 ! x.j w d 6 V.h.j ; 2 u ,.Z.u z x ~ ~ D i v -.) h 1 g T ).8.O.W 3 u j ) #.> v 8.x g -.w <.^ k 2 k C.' J x h 0 x 1 ",
"j ; 1 O.=.O.h ;.^ 2 k M A m.U.! H #.%XL.j F H H h V C [ v ^ (...+.` :.=.8.o.j f u 0 J g l.6.>.0 W E ! O.r.l.; t 4 @ V $.W H w r ",
"h.% + ! ..s r ^ v n H ,.R ) h.V + < [ h.;.F x / ; 2 ^ ).! $X(.o.2 2 V ' O.n 1 u ^ c 3 ~ #.j ! h ..n c 5.C.~ $ ; 4 f d ,.z.Y 3 c ",
"j ) ! 9 h j 4 Z r 0 w j w >.p.V 1 ~ ! ..i.e.v d 4 w v k >.+XD...% 3 J i J d d }.g.! J @.^ S.O.a c n E.7.~ P 1 d T Z.^ F h ' x h ",
"2 S...> 2 C m r.c 9 r q & O.R 9 9 ~ / &.J M j v ; v 3.W g ;.^ x % d Q x t u 8.*X' $.J [ [ S.Y Z < n o.&.~ ' W Z ) Z.0 q h @.;.2 ",
"y ..>.H ~ Z x.;.W w E T ! E 6 r r d @ E l.,.Z.X.1 ! ~ j $.4 2 F F c.K u ; g n.g.V M E d ~ n K j h h H %.,.(.f.k Q 5.1 v ..d O.Z ",
"> u n u f h h D.` % f 1 z ..1 1 1 f ; 0 @.' t./ G j X.d 6 2 d ^ P V [ p w E ,.W Q g >.X.H j j ` u w | g J Q.> j ~.F J j Z g.! K ",
"u j E u f 0 J ! 9 3 j w q v w 1 1 f M #.L W (.y.G x 0 7 g Q k >.V N Q 3 1 -.E k F.E h @.W J M d K ' y.4 C ~ j t I H p o.| ) x K ",
"Q.3.v Z d ` ` V z q 9 c q c v h ;.B k /.j ~ <.W u ; < 4 f ~ ;.c X.V V ' w A ; w O.d 2 H ! $.J x V P P y.9.C d g.J d 1 8.o.(.< k ",
"G.d 3 j k -.#.+.^.Z v p 0 j H 8.F g ! H - @ v O.O.x j : 6 w ^ 7.H m 5 0 j @.2 1 | #.V u H h F $.2 V ` >.j t | ,.^ f Q -...1 6 T ",
"h.d.O.~ Z -.^ ) t.m ; 0 j <.W T.P W ;.x ; 4 E d v z x W j f H ! v A y q [ A 3 j Z j h K w r 0 j ' @.Y -.2 ; Q ^ w , f g.c r c x.",
"Z A O.k 8 %.E :.S.J ( M g #.].N.V ! ^ 4 5 [ d.k T / Z d ) M g ` y h 7 v / ( d w f d a V W n w -.#.K c O.2 L @.2 % 0 ;.x z e p K ",
"0 w 1 9 9 o.n h w Z e.C & v ^ 8.h v o.p $ ;.N.y.f ~.K ; d M g K.x v F C.#.c k ;.B <.K G u ! H D j >.E ) ~ v o.f.y c w % % t 6 d ",
"z > > 1 0 j c p H A Z n h v S.>.r c K 9 c ;.t.J M.%Xr p ` I.-./.O.u h q 8.n <.O.K.OX(.o.d h H j @.u j G h & 2 i ` 1 c w 2 ; B j ",
"o.r 3.d 3 ) g W ;.7.T v O.-.~ ~ 3 V d.+ 1 ;.S...oXY.d 0 v P.P.l.k ; / j +.#.y ! l.~ j 0 F P p O.l.Z N ` ! > $ g o.u h ` M 8 ; ^ ",
"o.q c z ) ) g i h n 1.:.g.O.o.z d J L > u ~.d.F H.0.M c K Z 5 ' v 1 u ~ n ;.d v X.W R ; V G.P j ` ` m $.1.J 0 -.b.d ;.J a j ! ! ",
"x p e c Z j d u 1 K W ~ ' ,.~ h 6 ^ z z ! ! O.f d.c : d V V ' f ; 1 ,.8.K / 8.z ! n +.,.u @.2 t 5.f.D u.8.K x -.S.^ J J p u ! 7.",
";.t V ..x x n -.# L ` S.>.X.~ d ) h n r w > u ! n ! @ h d / ^.=.3 &.).K a C W j h K n h k h w h 5.p.C X.3.v v o.c q x K ..u / $.",
"w O 2 o.n q n W.2 u ..,.d.,.H 3 Z o...^ ; ; u +...X.+ h _.;.^ r n O.S.g.f / j F ] ;.p , k K H h ~ ' 2 @.c 1 ~ i.~ p p h v V ,.:.",
"v 0 0 h ! 1 ! #.H E h K X.O.n w z H W ` ; 4 B.$.0 ` 2 d z.~ ; 0 K X.O.>.! j h j x a y u p f j 0 z d @ f w 0 L A ` x u w w ,. XZ.",
"n G.f 1 j A j D.#.w r h n ] ! z & ~ J.j + h f.d.x ! H ~ d c 2 J g g.! Y z t j v c O.K #.K h ! W u ` 4 3 r h < X % ..z K v #X XG.",
"! ` : h W.W l.+XL.1 h ~ ~ ..o.~ ..~.j < u K K O.o.1 & u ! n c j d [ 0 w K ;.,.K j x c.J > n H ..h v ~.=.p H k   1 K x 1 z z.g.O."
};
