/* XPM */
static char *_f186c0a16da4199c24094d37d300c24JkfAXrhArvEyxSwc[] = {
/* columns rows colors chars-per-pixel */
"64 62 209 2 ",
"   c None",
".  c #010003",
"X  c #0D0003",
"o  c #04000C",
"O  c #0C020E",
"+  c #120106",
"@  c #13020D",
"#  c #1B020C",
"$  c #11080E",
"%  c #1C0003",
"&  c #12100E",
"*  c #060210",
"=  c #0D0311",
"-  c #0F0418",
";  c #140412",
":  c #1B0515",
">  c #150915",
",  c #1B0A15",
"<  c #150619",
"1  c #1E0619",
"2  c #150C1A",
"3  c #1C0A1A",
"4  c #16121E",
"5  c #270009",
"6  c #230515",
"7  c #2B0415",
"8  c #250816",
"9  c #220719",
"0  c #2B051A",
"q  c #24091A",
"w  c #2B091C",
"e  c #2E0916",
"r  c #310415",
"t  c #340915",
"y  c #3B061C",
"u  c #330B1D",
"i  c #3C0C1D",
"p  c #310319",
"a  c #261117",
"s  c #291417",
"d  c #2B121C",
"f  c #28181B",
"g  c #33131E",
"h  c #351A1B",
"j  c #3C171B",
"k  c #2C211D",
"l  c #1B1527",
"z  c #250B20",
"x  c #340C20",
"c  c #3C0D20",
"v  c #241428",
"b  c #2B1720",
"n  c #351F22",
"m  c #351620",
"M  c #3A2526",
"N  c #3A2C26",
"B  c #38302A",
"V  c #430416",
"C  c #430D1E",
"Z  c #4B0E1E",
"A  c #420D17",
"S  c #5D0D1E",
"D  c #540F1C",
"F  c #4B131E",
"G  c #55121D",
"H  c #59111F",
"J  c #72121C",
"K  c #750B1B",
"L  c #440E20",
"P  c #4B0E21",
"I  c #510E21",
"U  c #5B0E21",
"Y  c #451223",
"T  c #4D1121",
"R  c #471B22",
"E  c #4F1B2C",
"W  c #491922",
"Q  c #531122",
"!  c #5C1323",
"~  c #581823",
"^  c #620E21",
"/  c #631423",
"(  c #6B1524",
")  c #6E1926",
"_  c #631E29",
"`  c #711725",
"'  c #741925",
"]  c #7B1A26",
"[  c #771827",
"{  c #442626",
"}  c #4C2425",
"|  c #412C2A",
" . c #4B2B28",
".. c #512B2C",
"X. c #592E2B",
"o. c #5A252A",
"O. c #41312C",
"+. c #5D2C33",
"@. c #4B3730",
"#. c #4D3B31",
"$. c #5D3F30",
"%. c #573622",
"&. c #60242C",
"*. c #6A3727",
"=. c #722F37",
"-. c #643632",
";. c #673C36",
":. c #723134",
">. c #564030",
",. c #7D482B",
"<. c #684637",
"1. c #734A3A",
"2. c #79453B",
"3. c #73533E",
"4. c #7F513F",
"5. c #6F4727",
"6. c #231D40",
"7. c #27334F",
"8. c #272842",
"9. c #7E3D43",
"0. c #5A5359",
"q. c #6B4242",
"w. c #7F4E44",
"e. c #6C5443",
"r. c #705D47",
"t. c #775948",
"y. c #765F54",
"u. c #79624B",
"i. c #6E605E",
"p. c #7C685E",
"a. c #86161F",
"s. c #831B26",
"d. c #8A1C26",
"f. c #881E29",
"g. c #931F26",
"h. c #921E28",
"j. c #952127",
"k. c #8B3F30",
"l. c #9A3033",
"z. c #A7232A",
"x. c #B1232A",
"c. c #B13D3A",
"v. c #9F4631",
"b. c #87573B",
"n. c #915432",
"m. c #A85737",
"M. c #996B3D",
"N. c #D27D3D",
"B. c #8C5642",
"V. c #8C584C",
"C. c #825B43",
"Z. c #935A47",
"A. c #874249",
"S. c #866A4F",
"D. c #9C6245",
"F. c #9A6C53",
"G. c #8C7754",
"H. c #987558",
"J. c #886951",
"K. c #A76A49",
"L. c #A87146",
"P. c #A06C59",
"I. c #A97655",
"U. c #CE7C4D",
"Y. c #C96E58",
"T. c #948627",
"R. c #D78C3D",
"E. c #FFEB3B",
"W. c #FFFF35",
"Q. c #B38359",
"!. c #BE8D64",
"~. c #BC9869",
"^. c #A89070",
"/. c #C38B5C",
"(. c #FFA149",
"). c #FFBC4B",
"_. c #FFB847",
"`. c #FFB253",
"'. c #C29C6F",
"]. c #CA9E6E",
"[. c #C28A64",
"{. c #C9A574",
"}. c #C8A777",
"|. c #DCAB75",
" X c #DBB47D",
".X c #D6B37D",
"XX c #D4A268",
"oX c #E0AF77",
"OX c #E2B97D",
"+X c #FFD55D",
"@X c #FFEC40",
"#X c #FFDD61",
"$X c #BCA781",
"%X c #DABB85",
"&X c #E4BD84",
"*X c #F2BB83",
"=X c #E4C58B",
"-X c #EAC687",
";X c #E7CD90",
":X c #EEDA9A",
">X c #EBD192",
",X c #F6DB97",
"<X c #FCCB8B",
"1X c #EBDBA5",
"2X c #EBE0A3",
"3X c #FDEEAC",
"4X c #F7E7A4",
"5X c #FCF2AE",
"6X c #FCF9B9",
/* pixels */
"                                                                                                                                ",
"                                                                                                                                ",
"                                                                                                                                ",
"                                                                                                                                ",
"                                                                                                                                ",
"                                                                                                                                ",
"                                    l Y   i                               @ +                                                   ",
"                                    u Y [ i                               @ X           q q q : X 7.                            ",
"                                q i Z     u q                             @           9 6 q z q w : =                           ",
"                              9 c i ;     X 6 :                         : :           ; .     # X : w ; >                       ",
"                              u u           @ ;                         : q         v @           . J w *                       ",
"                              9             ; ;               .X^.i.      : :       2 +             5 i i                       ",
"                        -XH.  q     @ ;     @ 9                 6.}.0.    o w :     l       ; ;     . a.x.                      ",
"                       X,X    q             ; 9                   '.-X|.    o w @           @ ;     . G ` u 3                   ",
"                      =X].      q         ; q w         ; ;       K.>X&XU.    ; 9 @     @ @ ; @     X 8 u w 2                   ",
"                    =X%X2.              : q 9         ; ;           6X5X/.      O ;       + ;       8 Z Q u 3                   ",
"                    =X}.b.          ; : 9 1 :       ; ;           p.,X,X%XZ.    e = ;             w / p ; 1 3                   ",
"                    :X2XD.        ; ; : = o 1       : ; ; ;       y.3X;X~.K.    p = @           w Q C ; ; + 2                   ",
"                    {.=XL.        ; * ; i G i w u u i , : ; ;   & $X1X>XQ.q.  o = @           w Q i 0 ; @ X                     ",
"                    I.=X XK.      o 6 ! ] d.] Q P ` ! c w 9 : . 3.5XXXOXw.z . ; ; +     : q i Q i 1 q ; 2 X                     ",
"                    I. X3X|.K.  . 6 / d.g.s.( Z P Q L Q w ; : 3.,X%XV.P.o.: 9 : @     l 6 / D q T q o @                         ",
"                      F.,X:X[.+.7 ( d.z.j.( i / i w P u q p R -X4XV.E =.9.o 6 :       ! C i p < i : =                           ",
"                      ;.I.|.J.r I ! d.d.] T L C T ( ] C : P _ !.Q.+.A.9.w @ @       r ! i 1 : : = ;       q 6                   ",
"              w :       E h j S T i ` [ s.! w i d.z.) Q : i T o.2.+.a d o ; ;     = 8 w q q ; @       % 0 : : +                 ",
"          q ; : : @       . t z.h.P / ! P T T d.] y O : : w w y Y d . = c w O ; ; ; O 1 9 ; ;       + + :   O @                 ",
"        q : ;     ; @       , 6 V ] ` u u / s.s.= n.N.s ; 9 9 : ; ; u C L q : O ; ; O 9 : O         @         +                 ",
"        :           ; ;     o %.(.v.0 w ; Z ) : T.E.).h = 1 9 : = = P C 9 i c C 8 = ; : ;         : ;       ; @                 ",
"        ;           ; ;       ,.+X`.*.; u q ; m.@XW._.h = ! / q : 9 w ; i s.! Q ] i = ; ;         ; 1       ; +                 ",
"          ; ;       t ; ;     ; L.#X5.7 ) w ; w R.).*.1 / Q T i : w u i ] s.s./ ( ! = ;     ; ;   ; ; 9 #                       ",
"            ; ;     w ; ;   t C d } ~ ] / ` ! : g R i / P L i : : w L T d.j.s.( L L w : ;     ;     X p L #                     ",
"                    ; ; ;   6 c U ( L / s.Q ` Q S ( ( i : ; : ; ; w L L / j.` P P i w 9 ;     ;     X @ ; q +                   ",
"                  : 9 ; ;     : ' y ,.k.O C.:.6 W T q i L ; ; ; q w q w T Q L ! ) x c i ; ; ; ;       X @ O w v                 ",
"                8 C : ; ;     . J.e.M.b.g oX@.} |.M ;.d u : ; ; w ; w 1 1 Y L i u c i i : ; ;             @ q ;                 ",
"              w C 9 @ ;         1.$.-.<.. 1.{ . 2.n o ; i : O w w ; q 9 ; : : w P P c P i ;               = 9 ;                 ",
"              w q : ;             O O O @ ; ; ; O O f > / : O C q ; u w 9 ; ; w / / i ( ! ; ;     ;         w ; ;               ",
"            q u 9 @     ; ;       b f f f ; O O M @ {.| S 9 : i ; ; Q i : ; = 6 L Q ` T L c ;     ; ;       q ; ;               ",
"            9 ; 9 ;     ;         H.<.G.u.. M O }.O.u.&.U w w 9 ; ; q 1 ; ; ; O 6 C i w u i :   ; ; ;       9 ; ;               ",
"            q w 9 ;     ;       O  .j F.t.. ~.#.u...# H i 9 6 ; : w 9 : : q ; ; ; = o 1 P Q 8 O ; ;       @ 9 ; ;               ",
"            w L 1 1 @     ;   ; ; O p :.&.7 B.X.O ! ( w q ; ; ; ; 1 : : w : ; ; ; O : L [ / 9 ; ;         : w ; ;               ",
"            0 w : u ;       ; ; ; : u y I / S U / L q : ; ; ; : : : w w : ; ; ; ; ; Z h.s.i q 1       @ 1 u t ; ;               ",
"              ; u C q ;   ; : 1 : ; O : ! Z u L i q 1 ; ; ; ; 9 9 w 1 : ; ; ; ; o i h.s.T u w : ;   @ w 9 8 ; ; 2               ",
"              ; : : w O ; w u , : : ; = ; w u i ; 9 ; ; ; ; ; ; ; : ; ; ; : : ; = Z s.C C Q q ; ; : x : O : : @ >               ",
"                ; 1 ; = w L i w w : ; ; O   w w ; : ; ; ; ; ; ; ; ; ; ; 9 9 : @ ; ! ! c ( P : ; = i w ; : q @ X                 ",
"                  O = u Q C i u q 1 ; ;       u w ; ; ; ; ; ; ; ; ; : : w u ; = - ! ' / P 1 ; ; ; u : : 9 + X                   ",
"                  : i P ( ! C u 9 : ;         : w : ; ; ; ; ; ; ; ; q w i P < : / ) d.( u ; ; ; ; ; 9 ; @ X                     ",
"                  : ) ( i T ! u ; ;         ; O O ; ; ; ; ; ; ; ; ; i C Q i = C ] s.) C w 1 ; ; ; ; ; ;         >               ",
"                ; / s.[ 9 c ! p =         : 1 9 : ; ; ; ; ; ; ; ; ; Q P P ; i ! ) d./ u u : ; ; ;             + ;               ",
"              : F G f.I ; w / ^ 7       : q w 9 ; ; ; ; ; ; ; ; ; : ! C # ! ! Y / Q Q L L q = ; ; ;           X ;               ",
"              e ( 8 h.w O = Z c.X.    ; 9 w 1 ; ; ; ; ;       ; ; ; 7 M Z.K : w [ L w / / 8 = ; 1 ; @ ,       + ;               ",
"              6 y t K = ;   O B.C.    ; : , ; ; ; ; ;               o @.*XX.o A x.Z - ( d.u O ; : 1 9 : ; ; ; : :               ",
"              d -.{ F.. ;     <.4.      ; ; ; ; ; ; ; ;             = N I., o V a.w o } l.A O ; ; : : ; ; ; ; ; 3               ",
"                2.B &Xj .     q d           ; ; ; ; ; ; ;           2 > s O . >.F.. . r.Y.  = ; ; ; : q q q ; ; 4               ",
"                  1.r.<X-.o                   ; ; ; ; ; ;               O . @.OX1.. . G.H.    ; ; ; ; : : : ; >                 ",
"                  8.  N a               + + + ; ; ; ; ;                   . e.'.. . t.&X|                                       ",
"                                        : ; : q : ; ; ;                 2 7 F & O @ f k ;                                       ",
"                                      g . <...; ; ; ;                   f 2.O .  .2.@ o                                         ",
"                                      m O $ O ; ; ; ;                     $ ; @ $ @ @ ;                                         ",
"                                                                                                                                ",
"                                                                                                                                ",
"                                                                                                                                ",
"                                                                                                                                ",
"                                                                                                                                "
};
