/* XPM */
static char * plyr_xpm[] = {
"64 64 252 2",
"  	c None",
". 	c #B3A5A4",
"+ 	c #AEA0A1",
"@ 	c #B5A9A9",
"# 	c #C2B4B4",
"$ 	c #BBACAC",
"% 	c #C9BDBC",
"& 	c #A39494",
"* 	c #D2C6C5",
"= 	c #ADA399",
"- 	c #D6CBCA",
"; 	c #A48986",
"> 	c #E7A6A4",
", 	c #C9A69A",
"' 	c #CDC2C2",
") 	c #D4C8C7",
"! 	c #9A8C8C",
"~ 	c #968985",
"{ 	c #DDD3D2",
"] 	c #BEB1B1",
"^ 	c #D1ACA9",
"/ 	c #CF9996",
"( 	c #968B8B",
"_ 	c #B49998",
": 	c #D78587",
"< 	c #C5BAB9",
"[ 	c #9E9191",
"} 	c #B97F81",
"| 	c #8A878C",
"1 	c #CB7378",
"2 	c #916C6E",
"3 	c #A69999",
"4 	c #928484",
"5 	c #877878",
"6 	c #8B7C7C",
"7 	c #8E8181",
"8 	c #B17071",
"9 	c #E59A95",
"0 	c #E0D6D5",
"a 	c #AB9C9C",
"b 	c #8C847E",
"c 	c #99766B",
"d 	c #D27E82",
"e 	c #945D62",
"f 	c #A89687",
"g 	c #D9CECD",
"h 	c #E3DAD9",
"i 	c #B8ABA6",
"j 	c #E5DBDA",
"k 	c #B3A997",
"l 	c #894C54",
"m 	c #C6B6A6",
"n 	c #D6CBAD",
"o 	c #AB8779",
"p 	c #B79488",
"q 	c #E7D6B9",
"r 	c #C6B8B7",
"s 	c #968C91",
"t 	c #D28B70",
"u 	c #FCF4CC",
"v 	c #94857D",
"w 	c #A79696",
"x 	c #FFF8D8",
"y 	c #AE5D65",
"z 	c #776867",
"A 	c #7B6D6D",
"B 	c #867A76",
"C 	c #FBE4CA",
"D 	c #8A7F82",
"E 	c #977974",
"F 	c #F0E3B8",
"G 	c #785A5A",
"H 	c #6D4949",
"I 	c #797576",
"J 	c #F3EBE9",
"K 	c #F8F6F5",
"L 	c #FEFCFC",
"M 	c #ECE5E3",
"N 	c #EEEBEA",
"O 	c #6E6161",
"P 	c #625555",
"Q 	c #DAD0CF",
"R 	c #847575",
"S 	c #5E5152",
"T 	c #736464",
"U 	c #9A9699",
"V 	c #C6BFC8",
"W 	c #A6A9AD",
"X 	c #5B4D4D",
"Y 	c #685B5B",
"Z 	c #B2ABAF",
"` 	c #B9856A",
" .	c #B97553",
"..	c #CA8853",
"+.	c #E99877",
"@.	c #A47C74",
"#.	c #ED926E",
"$.	c #B56638",
"%.	c #AC5C2F",
"&.	c #B17052",
"*.	c #A96844",
"=.	c #5C4838",
"-.	c #32100C",
";.	c #2E2828",
">.	c #66676E",
",.	c #D78456",
"'.	c #F9B38F",
").	c #512911",
"!.	c #8C6C4F",
"~.	c #020202",
"{.	c #04080A",
"].	c #160C0A",
"^.	c #77574B",
"/.	c #FBC7A7",
"(.	c #A65626",
"_.	c #683519",
":.	c #535658",
"<.	c #571806",
"[.	c #FAC29E",
"}.	c #CEB292",
"|.	c #F8B895",
"1.	c #C9734B",
"2.	c #6C340D",
"3.	c #380603",
"4.	c #580502",
"5.	c #69342E",
"6.	c #444852",
"7.	c #EEB091",
"8.	c #944B0D",
"9.	c #A95704",
"0.	c #642905",
"a.	c #490A01",
"b.	c #954818",
"c.	c #F8C198",
"d.	c #FBAB89",
"e.	c #733506",
"f.	c #A9510A",
"g.	c #B27129",
"h.	c #FBDABE",
"i.	c #CF7213",
"j.	c #7A4518",
"k.	c #FCD5BA",
"l.	c #F3DDCA",
"m.	c #E8D5C7",
"n.	c #D48C0F",
"o.	c #B08A53",
"p.	c #FBDDCA",
"q.	c #B56A0B",
"r.	c #EDA85D",
"s.	c #FDE6D6",
"t.	c #BFB9B9",
"u.	c #E2A218",
"v.	c #F2CA94",
"w.	c #FBDAC4",
"x.	c #F5BA51",
"y.	c #E29017",
"z.	c #F2C8B3",
"A.	c #492C28",
"B.	c #481A03",
"C.	c #8D5034",
"D.	c #304756",
"E.	c #32304D",
"F.	c #586677",
"G.	c #364352",
"H.	c #553530",
"I.	c #A8B6C9",
"J.	c #C7D5E6",
"K.	c #95A7BA",
"L.	c #525467",
"M.	c #395066",
"N.	c #7590A8",
"O.	c #B9CCD8",
"P.	c #572504",
"Q.	c #6F4228",
"R.	c #6E401C",
"S.	c #4B6C89",
"T.	c #8DA4B6",
"U.	c #EBFBFE",
"V.	c #B5CCE8",
"W.	c #D7E8F5",
"X.	c #8F3008",
"Y.	c #6D8497",
"Z.	c #D2BBC2",
"`.	c #471516",
" +	c #697179",
".+	c #8E94AC",
"++	c #B8C8D9",
"@+	c #6D7086",
"#+	c #CD882B",
"$+	c #B52D0F",
"%+	c #F19230",
"&+	c #F5B0A3",
"*+	c #A40E0E",
"=+	c #690405",
"-+	c #D2301B",
";+	c #CA150D",
">+	c #B11412",
",+	c #D53127",
"'+	c #767884",
")+	c #6B7F92",
"!+	c #D24D18",
"~+	c #EB5525",
"{+	c #A7BBD5",
"]+	c #E16F18",
"^+	c #772F0F",
"/+	c #B3322B",
"(+	c #F7C75C",
"_+	c #D9E0DA",
":+	c #FAA845",
"<+	c #6F1209",
"[+	c #93100A",
"}+	c #EC756A",
"|+	c #D45334",
"1+	c #860407",
"2+	c #841E21",
"3+	c #1E2E3A",
"4+	c #F06836",
"5+	c #CCDDEF",
"6+	c #D7D9D8",
"7+	c #B1A176",
"8+	c #F7B239",
"9+	c #6F7176",
"0+	c #99B1CE",
"a+	c #C5C9D6",
"b+	c #F6594C",
"c+	c #758794",
"d+	c #914E2A",
"e+	c #563456",
"f+	c #CD5449",
"g+	c #88582A",
"h+	c #2C0D2F",
"i+	c #390338",
"j+	c #90728A",
"k+	c #6C296D",
"l+	c #3D0744",
"m+	c #715888",
"n+	c #4F0D4D",
"o+	c #6A1E69",
"p+	c #A48EB0",
"q+	c #864A8D",
"r+	c #5A3769",
"s+	c #763379",
"t+	c #6E5471",
"u+	c #AC9DC8",
"v+	c #C2C1CA",
"w+	c #D1E9F3",
"x+	c #9D3D44",
"y+	c #421C21",
"z+	c #993132",
"A+	c #EE7559",
"B+	c #701E23",
"C+	c #EDEEF2",
"                                                                                                                                ",
"                                    . +                                                       @                                 ",
"                                    # $                                                       % +                               ",
"                                  & * % &                                                   = - # ;                             ",
"                                & > , ' ) !                                             ~ . { ] ^ / (                           ",
"                              _ / : ; < { . !       ( ! ! ! [ [ [ [ [ [ [ ! ! !       ! [ # { + } : , &                         ",
"                            | _ > 1 2 3 ) ' . [ 4 5 3 . 3 ( 6 6 4 4 7 6 4 [ 3 . ! 5 ! & $ ) < 7 8 : > !                         ",
"                            & , 9 8 2 ~ $ 0 ) . ! 6 3 $ @ & ~ 6 5 5 5 7 ! a $ @ ! 6 3 $ { - 3 b c d > _                         ",
"                          ( , > : e f f 3 g h ' + ! 5 & $ @ i 3 4 5 ! . $ i i 4 6 3 i - j < ! k c 8 9 > _ (                     ",
"                          ( ^ 9 8 l m k 6 ] { ) i @ [ [ ! 6 7 6 5 5 5 6 6 4 & ! 3 i $ { - 3 6 n o l d > _ (                     ",
"                          ( / / p , q n ~ 3 r ] & ! 6 6 6 7 7 7 4 4 4 6 6 7 5 5 4 ! a < $ [ f q n , p 9 _ (                     ",
"                          s : t f u u n v 4 w & 6 4 ~ 6 4 [ ! & 3 [ [ 3 3 ! ~ ~ ~ 4 7 3 [ b f q x n o : p (                     ",
"                          [ 8 y c n u i z 5 ! 4 ~ i $ 3 ! ! ! @ @ ! ! . + & i i $ a 5 ! 4 A B q u , e 8 ; [                     ",
"                          [ 2 c k C n v 5 ! ! 3 . [ ! ! ! [ + ) < ~ ! . i a & [ ! 3 @ & ! 4 5 f q q f e D [                     ",
"                          [ E l E F m 6 5 6 ! 3 3 ( 3 & ! ! a - ) 3 ! a % % ! ~ 3 a & ! 4 5 5 4 q n G e 4 [                     ",
"                          [ 2 H G m = 7 5 6 ! ! ! 3 < . ! 3 # g ) . ! 3 ) g 3 ! a $ . 3 ( 5 5 & m f H l E                       ",
"                            G G b ! ! 4 6 & [ ! w # 0 @ ! $ g j - @ ! 3 % g ] [ & < 0 % a 4 6 . a ~ I H                         ",
"                            5 5 [ i ~ 5 & @ [ & # g 0 . ! i ) J K ' ! 3 % { g & ! r { { @ 4 ! 5 3 . ~ 5                         ",
"                            z ! @ i 6 6 @ ' @ ] j K K ' @ g J L L J ) @ ) K K M % ] 0 K N - a 5 & $ a 6                         ",
"                            A & $ < ! a j J < @ ' J K % + ) M N K L g a < K J L ) 3 ' M K M @ 5 a % . ( O                       ",
"                          P 5 a < j 3 ] L K % ! & Q 0 . ! i ) - j J $ ! . { g g . ! @ ) Q % a R < h i 3 z S                     ",
"                          P R @ j L 3 & j { r & 3 { h @ ! $ - { { - $ ! @ 0 { r 3 [ i g n a ! R - L ) 3 T S                     ",
"                          P R $ M L . a j { # 3 U r { @ ! ] Q { { Q # D a j 0 r 3 U @ Q ) 3 5 5 0 L - 3 T S                     ",
"                        P P R . ) M . 3 ) { V o c 3 { ] ! a r g g < + R a j n W E o ) - @ 4 6 & g M # & T X                     ",
"                        Y S 5 3 $ g a ! $ ) Z `  .[ ' i 7 ! a - ' w f R 3 - + w  ...' @ 7 6 3 ] - ' a & A P                     ",
"                        5 Y 5 3 # { + & $ i D ` +.! @ ! 5 & . - < ; +.@.( @ ! t #.t ! 5 b 3 $ g 0 ) . [ 4 z P                   ",
"                      T ! a & & ] { # & & $ ` $.%.%.f s @.9 & @ @ ; +.@.| & &.$.%.*.~  .@.U i - j ) . [ ! R P                   ",
"                    T 5 @ 3 ! 3 # { g $ 3 a =.-.-.-.;.>.o ,.t & s w '.; R  .%.).-.-.;.).!.] ' { * # @ & . 4 P                   ",
"                    6 & 3 A 5 & @ ' { 0 . X ~.{.].~.~.;.^.%.#./ ! ! /., &.(._.].~.~.].~.;.( j 0 # a a ~ . ! T                   ",
"                  5 ~ ~ A P z 4 [ . ) J @ {.{.:.v <.<.].].(.t [.}.v |.'.1.2.~.3.4.5.~ ;.~.6.j 0 < 3 ( 5 4 4 5                   ",
"                  [ R P Y P z 4 & . ) j ' 6 Y k 7.8.9.0.a.b.t |.c.7.|.d.1.e.3.8.f.g.q B O 3 0 0 < 3 ! 6 T z 5                   ",
"                  A Y S P P z 5 ! % % g ) [ m h.C q i.j.^.1.+./.h.k.k.[.#.&.H 8...l.h.q _ + 0 ' ) $ 5 z P T 6                   ",
"                  S     P P 5 6 7 0 @ . ) $ m m.x F n.o.m d./.p.C p.p.h.|.7.i q.r.u s.n i t.' & ) ' A P S O A                   ",
"                          P 5 4 4 ' ! 6 $ - v V x u.u.v.C /.w.p.p.p.p.C k./.C x.y.x.L ! = ) 3 5 $ ] z Y     P                   ",
"                            P A ! 6 ! ~ 5 6 }.h.s.h.h.w.p.w.p.p.p.p.p.p.w.w.w.h.h.p.s./.p I 5 ! ! A P                           ",
"                            X A 3 R 5 ~ 4 6 ! ` ,.7.p.s.p.p.p.p.k./.w.p.p.p.w.s.k.+...f ~ D ! 4 z P P                           ",
"                              O 5 ~ A 5 v H !.&.,.d./.p.p.p.p.C h.z.p.p.p.p.p.w./.+.1.&.^.^.6 ~ z X                             ",
"                                Y 4 T O z ).b.1.+.7.|./.p.w.w.w.w.w.w.w.w.w.w./.'.7.t *._.A.S 4 A                               ",
"                                  Y     O 5 5.B._.$.#.|././.[.[.[.[.[.[.[././.d.,.C.D.E.F.F.G.P                                 ",
"                                          G.:.G.;.2._.*.,.,.d.d.d.d.d.'.+...,.C.H.6.F.I.J.K.L.G.                                ",
"                                        M.N.O.K.L.;.P.e._._.C.C.C.C.C.C.Q._.R.e.H.S.T.U.L U.I.M.                                ",
"                                        :.V.U.W.T.M.q.X.<.2.Q._._._._.Q._.0.<.9.!.Y.s % m.Z.W L.                                ",
"                                        `. +.+++++@+#+$+$+%+c.7.+.+.+.&+r.i.*+i.o.L.=+-+;+=+3.E.                                ",
"                                    3.4.>+,+'+N.)+6.g.!+~+x.i ++v.x.- {+}.%+-+]+j.-.*+&+&+1.^+                                  ",
"                                  P.a.=+*+;+/+O M.E...~+~+(+W V._+m U.V.}.:+,+%+q.<+[+1.}+|+X.<.                                ",
"                                  e.[+=+=+1+;+2+3+=.(+4+-+x.U 5+6+= U.{+7+%+-+:+8+f.4.1+;+,+/+b.^+                              ",
"                                  9.$+1+=+=+[+=+a.9.:+4+-+i.9+0+}.#+a+N.!.]+-+%+8+f.3.1+,+b+b+x.(.4.                            ",
"                                (.$.^+=+*+*+^+<.=+>+>+!+i.f.I N.c+I c+Y.!.q.]+$+>+[+3.1+;+,+-+y.8.B.                            ",
"                                d+$.%.2+1+1+0.P.<+^+X.9.q.9.H.E.F.N.e+E.Q.q.q.f.X.<+P.f+f+|+#.+.$.e.                            ",
"                                (.$...d+4.<.0.P.B.).j.g+g+2.h+i+j+I.k+i+`.j.g+g+_.-.<...1.o.k./. .b.                            ",
"                                d+%.$.g+B.).    h+h+l+m+F.h+n+o+p+J.q+o+i+E.)+r+i+h+h+C.b.*.[.+.$.b.                            ",
"                                  ).).).P.      L.h+i+@+.+s+s+s+p+J.q+s+s+m+T.r+h+h+ +_.B.C.d.1.(.b.                            ",
"                                             +K.J.V V J..+n+k+n+t+I.o+k+o+k+++a+V a+++'+A.P._.2.                                ",
"                                            @+.+++a+5+U.5+.+u+p+.+)+L.t+t+@+J.W.5+O.{+N.Y   H.=.X                               ",
"                                            )+F.L.c+K.a+0 M M s.v+Y.c+Y.T.J.w+++.+F.L. +      ( A P P                           ",
"                                              A.H.5+L @.=+>+,+>+y 5+0+T.O.L U.W.V.'+3.G 7 5 5 ! ~ z P                           ",
"                                                  5.l 2+[+;+;+;+>+x+A.y+5.z+f+x+5.A.H.R ! & ! z O Y                             ",
"                                                  3.4./+A+A+A+A+|+[+<+A.e+5.B+=+a.3.O T A 5 R P S                               ",
"                                                    X...^ q C u n &.*.z @+F.D.        P P S P                                   ",
"                                                      G Y.K.C+L 5+.+)+B+4.-.                                                    ",
"                                                      B+B+z+}+}+f+z+B+                                                          ",
"                                                                                                                                ",
"                                                                                                                                ",
"                                                                                                                                "};
