/* XPM */
static char *_e3eb7295aec4a34ab665f3e30a939a0l9q5vJLjf2iVTKQf[] = {
/* columns rows colors chars-per-pixel */
"64 64 5 1 ",
"  c #2F2E2F",
". c #39314B",
"X c #3E2F5A",
"o c #564064",
"O c #85578E",
/* pixels */
"                                                                ",
"                                                                ",
"OOO      oooooooooooooooooooooooooooo      ooooooooooooooooooooo",
"OOO      oooooooooooooooooooooooooooo      ooooooooooooooooooooo",
"OOOOO  ooooooooooooooooXXoooooooooooooo  ooooooooooooXXooooooXXo",
"OOOOO  ooooooooooooooooXXoooooooooooooo  ooooooooooooXXooooooXXo",
"oOOOO  ooooXXXXooXXXXXXXXXXooooXXXXoooo  ooooXXXXooXXXXXXooXXXXX",
"oOOOO  ooooXXXXooXXXXXXXXXXooooXXXXoooo  ooooXXXXooXXXXXXooXXXXX",
"oXXOO  oo..XXXXXXXXXXXX..XXXXXXXXXX..oo  oo..XXXXXXXXXXXXXXXXXXX",
"oXXOO  oo..XXXXXXXXXXXX..XXXXXXXXXX..oo  oo..XXXXXXXXXXXXXXXXXXX",
"XXXXX  ......XXXXXXXX....XXXXXXXX......  ......XX....XXXXXXXXXX.",
"XXXXX  ......XXXXXXXX....XXXXXXXX......  ......XX....XXXXXXXXXX.",
"XXXXX  ........XX............XX........  ..................XX...",
"XXXXX  ........XX............XX........  ..................XX...",
"XXX      ............................      .....................",
"XXX      ............................      .....................",
"                                                                ",
"                                                                ",
"ooooooooooooooooooooo      oooooooooooooooooooooooo      ooooooo",
"ooooooooooooooooooooo      oooooooooooooooooooooooo      ooooooo",
"oooXXooooooXXoooooooooo  ooooooooooooXXoooooooooooooo  ooooooooo",
"oooXXooooooXXoooooooooo  ooooooooooooXXoooooooooooooo  ooooooooo",
"oXXXXXXooXXXXXXXXXXXXoo  ooXXXXooXXXXXXXXooXXXXXXoooo  ooooXXXXo",
"oXXXXXXooXXXXXXXXXXXXoo  ooXXXXooXXXXXXXXooXXXXXXoooo  ooooXXXXo",
"XXXXXXXXXXXXXXXXX..XXXX  XXXXXXXXXXXX..XXXXXXXX....oo  oo....XXX",
"XXXXXXXXXXXXXXXXX..XXXX  XXXXXXXXXXXX..XXXXXXXX....oo  oo....XXX",
"...XXXX................  ............................  .........",
"...XXXX................  ............................  .........",
".....................      ........................      .......",
".....................      ........................      .......",
"                                                                ",
"                                                                ",
"OOOOO      oooooooooooooooooooooo      ooooooooooooooooooooooooo",
"OOOOO      oooooooooooooooooooooo      ooooooooooooooooooooooooo",
"OOOOOOO  ooooooooooooXXXXoooooooooo  ooooooooooooooooooooXXXXooo",
"OOOOOOO  ooooooooooooXXXXoooooooooo  ooooooooooooooooooooXXXXooo",
"OooOOOO  ooooXXooXXXXXXXXXXooXXoooo  ooooXXXXooXXXXXXooXXXXXXXXo",
"OooOOOO  ooooXXooXXXXXXXXXXooXXoooo  ooooXXXXooXXXXXXooXXXXXXXXo",
"oooXXOO  oo..XXXXXXXX....XXXXXX..oo  oo..XXXXXXXX..XXXXXX......X",
"oooXXOO  oo..XXXXXXXX....XXXXXX..oo  oo..XXXXXXXX..XXXXXX......X",
"oXXXXXX  ......XXXX....XXXXXX......  ......XXXX......XXXXXXXXXXX",
"oXXXXXX  ......XXXX....XXXXXX......  ......XXXX......XXXXXXXXXXX",
"XXXXXXX  ..........................  ......................XXXX.",
"XXXXXXX  ..........................  ......................XXXX.",
"XXXXX      ......................      .........................",
"XXXXX      ......................      .........................",
"                                                                ",
"                                                                ",
"ooooooooooooo      oooooooooooooooooooooooooooo      ooooooooooo",
"ooooooooooooo      oooooooooooooooooooooooooooo      ooooooooooo",
"Xoooooooooooooo  ooooooXXooooooooooooooooXXoooooo  ooooooooooooX",
"Xoooooooooooooo  ooooooXXooooooooooooooooXXoooooo  ooooooooooooX",
"XXXXXooXXXXoooo  ooooXXXXXXXXooXXXXXXooXXXXXXoooo  ooooXXXXooXXX",
"XXXXXooXXXXoooo  ooooXXXXXXXXooXXXXXXooXXXXXXoooo  ooooXXXXooXXX",
".XXXXXXXXXXXXoo  ooXXXXXXXXXXXXXXXXXX..XXXXXXXXoo  ooXXXXXXXXXX.",
".XXXXXXXXXXXXoo  ooXXXXXXXXXXXXXXXXXX..XXXXXXXXoo  ooXXXXXXXXXX.",
".XXXXXXXXXXXX..  ..XXXXXXXXXXXX....XXXX..XXXXXX..  ..XXXXXXXX...",
".XXXXXXXXXXXX..  ..XXXXXXXXXXXX....XXXX..XXXXXX..  ..XXXXXXXX...",
"XXX..XXXXXX....  ....XXXXXXXX....XXXXXX....XX....  ....XX......X",
"XXX..XXXXXX....  ....XXXXXXXX....XXXXXX....XX....  ....XX......X",
".......XX......  ......XX..........XX............  .............",
".......XX......  ......XX..........XX............  .............",
".............      ............................      ...........",
".............      ............................      ..........."
};
